#!OML:ASF G:\acrobat\cartwheel_test\acrobat_wednesday\Session 1\acrobatwednesday.ASF
:FULLY-SPECIFIED
:DEGREES
48
root -9.61665 14.993 1.7284 147.486 3.10751 38.6287
lowerback 13.4894 1.91259 14.393
upperback -5.80132 6.94071 8.82982
thorax -13.9011 2.51056 0.246413
lowerneck -51.5142 -4.54141 -25.9465
upperneck 16.1098 10.4231 27.4951
head 30.8393 -15.9654 79.4354
rclavicle 3.97569e-014 -6.99722e-014
rhumerus 85.3101 -37.5063 -55.6084
rradius 34.4495
rwrist 34.4025
rhand -63.38 -61.0061
rfingers 7.12502
rthumb -35.3633 272.523
lclavicle 3.97569e-014 -6.99722e-014
lhumerus 18.4253 37.1131 -23.7191
lradius 58.8459
lwrist 48.8663
lhand -51.1453 -36.9119
lfingers 7.12502
lthumb -23.6879 -8.35149
rfemur -22.8621 5.94802 -48.4638
rtibia 5.59914
rfoot -44.3031 7.05812
rtoes 8.24582
lfemur 9.16168 9.73873 5.57766
ltibia 64.6871
lfoot 31.9812 -6.37316
ltoes 80.3526
49
root -9.19314 14.9647 2.10219 147.798 -0.638921 36.5673
lowerback 13.8833 1.78543 14.0376
upperback -5.58081 6.57298 8.16529
thorax -13.8217 2.32097 -0.256489
lowerneck -52.0563 -5.57976 -28.7876
upperneck 16.3844 10.5655 31.3926
head 25.7274 -10.254 77.2636
rclavicle 2.54444e-014 6.04305e-014
rhumerus 84.9791 -38.6962 -54.0438
rradius 36.2475
rwrist 33.9991
rhand -63.6893 -62.7563
rfingers 7.12502
rthumb -35.6565 270.843
lclavicle 2.54444e-014 6.04305e-014
lhumerus 15.0595 39.7292 -26.9198
lradius 61.0991
lwrist 50.8829
lhand -51.0734 -38.363
lfingers 7.12502
lthumb -23.619 -9.79373
rfemur -19.0782 5.93492 -43.52
rtibia 7.97416
rfoot -44.5876 5.53285
rtoes 0.0321377
lfemur 9.70099 7.63664 5.26417
ltibia 66.6111
lfoot 31.1365 -8.67636
ltoes 80.1911
50
root -8.77836 14.9258 2.45102 147.799 -5.53646 34.5441
lowerback 14.0741 1.21733 13.2339
upperback -5.2219 5.46593 7.58445
thorax -13.5744 1.85273 -0.239156
lowerneck -54.1508 -5.63908 -31.6035
upperneck 18.156 13.8021 34.964
head 20.2554 -3.34966 75.5661
rclavicle -1.39944e-013 8.90555e-014
rhumerus 83.9516 -39.7895 -51.1197
rradius 38.0412
rwrist 32.5107
rhand -63.3863 -66.7974
rfingers 7.12502
rthumb -35.3693 93.2664
lclavicle -1.39944e-013 8.90555e-014
lhumerus 13.9172 42.5978 -26.9605
lradius 62.0213
lwrist 50.783
lhand -52.1876 -39.8955
lfingers 7.12502
lthumb -24.6873 -11.4681
rfemur -11.136 12.1676 -39.5708
rtibia 4.72458
rfoot -49.0536 11.8832
rtoes 1.64379
lfemur 10.0421 5.74374 4.62975
ltibia 68.3923
lfoot 31.8287 -6.64455
ltoes 80.2501
51
root -8.43464 14.8861 2.73346 149.354 -9.90536 31.5768
lowerback 12.5753 1.12567 10.6278
upperback -5.34269 4.48844 7.07858
thorax -12.9519 1.62428 0.868184
lowerneck -56.0085 -5.22039 -33.7454
upperneck 21.6691 16.3497 40.3426
head 15.4981 3.20763 70.0416
rclavicle -1.82882e-014 -2.38542e-014
rhumerus 83.5578 -39.9537 -49.5529
rradius 39.2292
rwrist 32.0552
rhand -63.335 -69.0465
rfingers 7.12502
rthumb -35.3207 95.5271
lclavicle -1.82882e-014 -2.38542e-014
lhumerus 15.039 45.2066 -24.8547
lradius 63.0691
lwrist 50.3042
lhand -53.7959 -39.8696
lfingers 7.12502
lthumb -26.2279 -11.662
rfemur -5.21471 17.7216 -36.1207
rtibia 2.33679
rfoot -54.4006 14.7481
rtoes -1.84721
lfemur 10.1825 6.30691 4.91528
ltibia 68.6423
lfoot 33.6267 -5.19866
ltoes 80.1099
52
root -8.15865 14.8538 2.94359 152.251 -13.3044 27.8752
lowerback 9.7747 1.78903 6.81295
upperback -5.73394 4.27951 6.13025
thorax -11.8086 1.83766 2.02728
lowerneck -55.4887 -5.17373 -32.2883
upperneck 19.0244 15.2232 36.4606
head 18.3164 -0.828617 74.4816
rclavicle -2.09121e-013 -3.97569e-014
rhumerus 83.049 -40.9787 -49.0996
rradius 40.1481
rwrist 32.6996
rhand -63.3395 -69.2195
rfingers 7.12502
rthumb -35.3249 95.699
lclavicle -2.09121e-013 -3.97569e-014
lhumerus 20.3323 48.1781 -19.1281
lradius 63.7661
lwrist 50.0738
lhand -50.5549 -41.1689
lfingers 7.12502
lthumb -23.1216 -12.5364
rfemur 1.39929 31.0832 -31.137
rtibia -2.41618
rfoot -66.0198 20.5159
rtoes -2.33315
lfemur 10.2251 8.97003 6.17899
ltibia 68.3259
lfoot 33.3321 -4.77905
ltoes 79.7895
53
root -7.89993 14.874 3.12515 156.022 -16.2702 24.2115
lowerback 6.45954 2.29636 3.46824
upperback -6.527 4.22384 5.27805
thorax -10.8253 2.07703 3.07332
lowerneck -54.6848 -5.36023 -32.2426
upperneck 19.2645 12.955 37.9598
head 18.9191 -1.28918 70.0923
rclavicle 9.38264e-014 4.92986e-014
rhumerus 81.9702 -41.7943 -47.916
rradius 41.3123
rwrist 32.92
rhand -63.0812 -68.2713
rfingers 7.12502
rthumb -35.08 94.8087
lclavicle 9.38264e-014 4.92986e-014
lhumerus 23.3058 48.087 -16.3411
lradius 65.0781
lwrist 49.5655
lhand -52.4881 -41.6615
lfingers 7.12502
lthumb -24.9753 -13.2738
rfemur 10.1542 48.3242 -22.2691
rtibia -5.6669
rfoot -83.0384 28.2893
rtoes 5.00827
lfemur 9.65261 12.9883 8.24902
ltibia 68.0173
lfoot 30.9811 -10.9857
ltoes 78.9237
54
root -7.63732 14.9125 3.29295 159.504 -18.6758 20.9455
lowerback 3.67929 2.21953 1.04863
upperback -7.46083 3.81026 5.20598
thorax -10.3346 2.0952 4.51023
lowerneck -54.4669 -4.64533 -32.0317
upperneck 19.6326 14.4162 35.9276
head 19.7443 -2.57085 73.6534
rclavicle -3.33958e-014 4.6118e-014
rhumerus 81.4079 -41.0062 -46.2331
rradius 42.4163
rwrist 32.4535
rhand -63.0878 -67.9756
rfingers 7.12502
rthumb -35.0862 94.5115
lclavicle -3.33958e-014 4.6118e-014
lhumerus 24.6449 47.2859 -14.0775
lradius 64.289
lwrist 48.637
lhand -54.3319 -42.8024
lfingers 7.12502
lthumb -26.7409 -14.6722
rfemur 70.9033 -74.911 -99.5442
rtibia -0.900657
rfoot -133.652 138.427
rtoes -5.67219
lfemur 9.52836 17.2309 11.3071
ltibia 67.8621
lfoot 28.0659 -15.4383
ltoes 78.031
55
root -7.32026 14.9597 3.46827 162.037 -21.7598 18.7942
lowerback 1.77548 2.38951 0.595313
upperback -8.34029 3.93638 4.29904
thorax -10.1379 2.17567 3.83327
lowerneck -53.6575 -4.47522 -32.326
upperneck 19.5723 13.9153 36.5912
head 19.3051 -2.25244 72.4147
rclavicle -2.8625e-014 -8.26944e-014
rhumerus 79.1331 -42.0958 -43.1855
rradius 43.2663
rwrist 31.9351
rhand -63.3999 -67.3103
rfingers 7.12502
rthumb -35.3821 93.7763
lclavicle -2.8625e-014 -8.26944e-014
lhumerus 32.1303 47.2638 -6.01067
lradius 63.4708
lwrist 47.3081
lhand -54.0566 -43.0435
lfingers 7.12502
lthumb -26.4775 -14.8733
rfemur 32.8004 62.4884 6.02021
rtibia -2.15513
rfoot -96.7813 34.6317
rtoes -13.663
lfemur 9.01878 19.6518 14.6134
ltibia 67.7234
lfoot 26.4837 -16.818
ltoes 77.6547
56
root -6.98697 15.0103 3.67049 163.941 -25.2019 16.8139
lowerback 0.783848 2.43729 0.850634
upperback -8.92771 3.94975 3.4432
thorax -10.1092 2.12938 2.8052
lowerneck -52.9164 -4.65379 -33.0997
upperneck 20.1074 12.5601 38.8392
head 18.3867 -0.979191 67.6637
rclavicle 1.46306e-013 2.8625e-014
rhumerus 78.9301 -42.7521 -42.0068
rradius 43.7041
rwrist 32.3126
rhand -63.8609 -64.4068
rfingers 7.12502
rthumb -35.8192 90.7675
lclavicle 1.46306e-013 2.8625e-014
lhumerus 39.9681 46.2399 3.06187
lradius 62.7368
lwrist 46.0362
lhand -53.421 -42.0826
lfingers 7.12502
lthumb -25.8689 -13.8221
rfemur 26.7316 54.1591 3.53066
rtibia 1.02467
rfoot -82.6571 28.8544
rtoes -7.65341
lfemur 7.93168 21.1344 17.6395
ltibia 67.8872
lfoot 23.5346 -20.7213
ltoes 77.0083
57
root -6.65822 15.0665 3.88413 165.767 -28.7166 14.3955
lowerback 0.00138394 2.22902 1.05111
upperback -9.26312 3.59976 2.92737
thorax -9.94424 1.90944 2.20604
lowerneck -52.39 -4.64218 -33.7741
upperneck 20.3571 12.5854 39.075
head 18.0118 -0.743415 67.0893
rclavicle 5.00937e-014 7.15625e-015
rhumerus 81.6572 -42.2736 -43.4796
rradius 43.766
rwrist 33.8061
rhand -64.1312 -60.1803
rfingers 7.12502
rthumb -36.0752 -86.4783
lclavicle 5.00937e-014 7.15625e-015
lhumerus 45.7246 44.1838 10.3602
lradius 61.6781
lwrist 45.1664
lhand -54.0814 -40.1372
lfingers 7.12502
lthumb -26.5013 -11.9706
rfemur 22.5898 46.0586 2.35806
rtibia 4.45264
rfoot -70.2204 23.7014
rtoes -4.44789
lfemur 6.34823 22.4004 20.1453
ltibia 68.4857
lfoot 19.9229 -22.2869
ltoes 76.2945
58
root -6.33592 15.1283 4.10842 167.536 -32.1959 11.6552
lowerback -0.359073 2.66107 1.25198
upperback -9.24393 4.08174 1.48578
thorax -9.58636 2.0738 0.538314
lowerneck -51.5206 -5.36249 -34.0125
upperneck 18.4325 10.9414 38.5957
head 18.4801 -2.09023 67.6467
rclavicle -1.47896e-013 -2.46493e-014
rhumerus 83.6243 -43.7674 -44.7098
rradius 43.5214
rwrist 35.7276
rhand -64.0915 -54.0715
rfingers 7.12502
rthumb -36.0376 -80.3788
lclavicle -1.47896e-013 -2.46493e-014
lhumerus 55.4838 41.0548 19.8468
lradius 59.1747
lwrist 44.075
lhand -54.9404 -39.61
lfingers 7.12502
lthumb -27.3232 -11.5701
rfemur 19.3529 37.9551 1.56693
rtibia 8.13282
rfoot -60.1897 17.449
rtoes -11.6724
lfemur 4.53859 23.2706 22.1809
ltibia 68.8036
lfoot 19.147 -21.3779
ltoes 76.0407
59
root -6.03679 15.1785 4.33488 169.052 -35.44 8.44912
lowerback 0.114247 2.84035 0.980304
upperback -9.37386 4.25661 0.587726
thorax -9.95817 2.13764 -0.308849
lowerneck -50.3751 -5.45154 -34.3056
upperneck 17.4711 10.3085 38.1586
head 18.5547 -2.86437 68.4108
rclavicle 7.03698e-014 2.54444e-014
rhumerus 86.2148 -43.6697 -45.7689
rradius 42.6862
rwrist 37.2828
rhand -64.0643 -48.826
rfingers 7.12502
rthumb -36.0118 -75.1396
lclavicle 7.03698e-014 2.54444e-014
lhumerus 60.9107 37.2091 24.9966
lradius 56.0338
lwrist 44.1552
lhand -55.9086 -42.4644
lfingers 7.12502
lthumb -28.2489 -14.5739
rfemur 14.5891 27.2989 -0.98653
rtibia 14.4218
rfoot -47.1478 7.19271
rtoes -0.423642
lfemur 3.23722 23.711 23.9717
ltibia 68.2636
lfoot 16.7344 -23.2362
ltoes 75.0563
60
root -5.75066 15.2275 4.5747 170.757 -38.8912 4.4809
lowerback 1.48047 2.97779 0.226018
upperback -9.26613 4.31819 -0.410701
thorax -10.6281 2.17136 -1.04227
lowerneck -50.4911 -5.59049 -34.5328
upperneck 17.042 9.92997 38.0389
head 18.658 -3.22847 68.5173
rclavicle 1.84075e-013 2.78299e-014
rhumerus 89.4268 -43.5237 -46.9829
rradius 41.2646
rwrist 39.1273
rhand -64.3414 -49.6415
rfingers 7.12502
rthumb -36.2743 -75.8902
lclavicle 1.84075e-013 2.78299e-014
lhumerus 65.9196 34.0352 29.524
lradius 51.989
lwrist 43.6068
lhand -57.5875 -50.1245
lfingers 7.12502
lthumb -29.8523 -22.5106
rfemur 10.5268 17.8503 -2.90474
rtibia 22.8732
rfoot -36.0116 -3.39636
rtoes 14.8075
lfemur 1.66269 23.918 25.0287
ltibia 67.1765
lfoot 13.2748 -24.9425
ltoes 73.4316
